{"title":"The Twilight Saga Breaking Dawn Part 2 2012 TS NEW SOURCE XviD F","uid":7845018,"size":1093580589,"categoryP":"video","categoryS":"movies","magnet":"?xt=urn:btih:5015b0d08c4b50f40de62b2622a021346e15aee2&amp;dn=The+Twilight+Saga+Breaking+Dawn+Part+2+2012+TS+NEW+SOURCE+XviD+F&amp;tr=udp%3A%2F%2Ftracker.openbittorrent.com%3A80&amp;tr=udp%3A%2F%2Fopen.demonii.com%3A1337&amp;tr=udp%3A%2F%2Ftracker.coppersurfer.tk%3A6969&amp;tr=udp%3A%2F%2Fexodus.desync.com%3A6969","seeders":3,"leechers":0,"uploader":".BONE.","files":11,"time":1353448267,"description":"Genre:Adventure | Drama | Fantasy\nLanguage:English &lt;a href=&quot;\nhttp://www.imdb.com/title/tt1673434/&quot; rel=&quot;nofollow&quot; target=&quot;_NEW&quot;&gt;\nhttp://www.imdb.com/title/tt1673434/&lt;/a&gt;\nSource:ADTRG Thanks\nEncoder:Tony\n\nFormat : AVI\nFormat/Info : Audio Video Interleave\nFile size : 1.02 GiB\nDuration : 1h 42mn\nOverall bit rate : 1 419 Kbps\n\nVideo\nID : 0\nFormat : MPEG-4 Visual\nFormat profile : Simple@L5\nFormat settings, BVOP : No\nFormat settings, QPel : No\nFormat settings, GMC : No warppoints\nFormat settings, Matrix : Default (H.263)\nCodec ID : XVID\nCodec ID/Hint : XviD\nDuration : 1h 42mn\nBit rate : 1 217 Kbps\nWidth : 624 pixels\nHeight : 264 pixels\nDisplay aspect ratio : 2.35:1\nFrame rate : 25.000 fps\nColor space : YUV\nChroma subsampling : 4:2:0\nBit depth : 8 bits\nScan type : Progressive\nCompression mode : Lossy\nBits/(Pixel*Frame) : 0.296\nStream size : 893 MiB (86%)\nWriting library : XviD 64\n\nAudio\nID : 1\nFormat : AC-3\nFormat/Info : Audio Coding 3\nMode extension : CM (complete main)\nCodec ID : 2000\nDuration : 1h 42mn\nBit rate mode : Constant\nBit rate : 192 Kbps\nChannel(s) : 2 channels\nChannel positions : Front: L R\nSampling rate : 48.0 KHz\nBit depth : 16 bits\nCompression mode : Lossy\nStream size : 141 MiB (14%)\nAlignment : Split accross interleaves\nInterleave, duration : 40 ms (1.00 video frame)\nInterleave, preload duration : 500 ms\n\n\nPlot:\nAfter the birth of Renesmee, the Cullens gather other vampire clans in order to protect the child from a false allegation that puts the family in front of the Volturi.\n &lt;a href=&quot;\nhttp://lookpic.com/O/i2/1733/us9dTiC.png&quot; rel=&quot;nofollow&quot; target=&quot;_NEW&quot;&gt;\nhttp://lookpic.com/O/i2/1733/us9dTiC.png&lt;/a&gt; &lt;a href=&quot;\nhttp://lookpic.com/O/i2/792/TLat4JQt.png&quot; rel=&quot;nofollow&quot; target=&quot;_NEW&quot;&gt;\nhttp://lookpic.com/O/i2/792/TLat4JQt.png&lt;/a&gt; &lt;a href=&quot;\nhttp://lookpic.com/O/i2/1971/UsACwVKc.png&quot; rel=&quot;nofollow&quot; target=&quot;_NEW&quot;&gt;\nhttp://lookpic.com/O/i2/1971/UsACwVKc.png&lt;/a&gt; &lt;a href=&quot;\nhttp://lookpic.com/O/i2/1284/CLEtReu4.png&quot; rel=&quot;nofollow&quot; target=&quot;_NEW&quot;&gt;\nhttp://lookpic.com/O/i2/1284/CLEtReu4.png&lt;/a&gt; &lt;a href=&quot;\nhttp://lookpic.com/O/i2/1380/QKd55RV2.png&quot; rel=&quot;nofollow&quot; target=&quot;_NEW&quot;&gt;\nhttp://lookpic.com/O/i2/1380/QKd55RV2.png&lt;/a&gt;","torrent":{"xt":"urn:btih:5015b0d08c4b50f40de62b2622a021346e15aee2","amp;dn":"The+Twilight+Saga+Breaking+Dawn+Part+2+2012+TS+NEW+SOURCE+XviD+F","amp;tr":["udp%3A%2F%2Ftracker.openbittorrent.com%3A80","udp%3A%2F%2Fopen.demonii.com%3A1337","udp%3A%2F%2Ftracker.coppersurfer.tk%3A6969","udp%3A%2F%2Fexodus.desync.com%3A6969"],"infoHash":"5015b0d08c4b50f40de62b2622a021346e15aee2","infoHashBuffer":{"type":"Buffer","data":[80,21,176,208,140,75,80,244,13,230,43,38,34,160,33,52,110,21,174,226]},"announce":[],"urlList":[]}}